<!--
  - Copyright 2026 Gagik Sargsyan
  -
  - Licensed under the Apache License, Version 2.0 (the "License");
  - you may not use this file except in compliance with the License.
  - You may obtain a copy of the License at
  -
  -     https://www.apache.org/licenses/LICENSE-2.0
  -
  - Unless required by applicable law or agreed to in writing, software
  - distributed under the License is distributed on an "AS IS" BASIS,
  - WITHOUT WARRANTIES OR CONDITIONS OF ANY KIND, either express or implied.
  - See the License for the specific language governing permissions and
  - limitations under the License.
  -->

<svg width="512" height="512" viewBox="0 0 512 512" fill="none" xmlns="http://www.w3.org/2000/svg">
    <rect width="512" height="512" />
    <path d="M14 0H499V445.935L437.428 502.991L14 512V0Z" fill="#111827"/>
    <path d="M492.346 0C512 0 512 0.000417982 512 18.2861V454.857C512 457.714 512 460.343 510.157 462.286L456.109 509.714C453.653 511.428 452.306 512 449.354 512H20.6543C1.00045 512 1 512 1 493.714V18.2861C1 0.000417982 1.00048 0 20.6543 0H492.346ZM43.7129 21C25.8669 21 25.8672 21 25.8672 37.8926V477.107C25.8672 494 25.8668 494 43.7129 494H432.982C435.663 494 436.887 493.472 439.117 491.889L488.193 448.072C489.866 446.277 489.867 443.849 489.867 441.21L489.866 37.8926C489.866 21 489.866 21 472.021 21H43.7129Z" fill="#0EB53D"/>
    <path d="M380.06 69H397.71C408.198 69 416.702 77.4971 416.71 87.9845L416.984 422.984C416.993 433.484 408.484 442 397.984 442H380.005C369.51 442 361.002 433.49 361.005 422.995L361.06 232.624V88C361.06 77.5066 369.566 69 380.06 69Z" fill="#AFB1B3" stroke="black"/>
    <path d="M90.6962 356.265C54.3192 380.558 77.9794 420.378 119.43 395.39L286.214 289.5C317.479 266.329 318.171 240.697 290.5 221.099L124.949 95.384C94.982 73.8738 65.192 112.133 90.6962 130.26L259 252.5L90.6962 356.265Z" fill="#22C55E"/>
</svg>

