<!--
  - Copyright 2026 Gagik Sargsyan
  -
  - Licensed under the Apache License, Version 2.0 (the "License");
  - you may not use this file except in compliance with the License.
  - You may obtain a copy of the License at
  -
  -     https://www.apache.org/licenses/LICENSE-2.0
  -
  - Unless required by applicable law or agreed to in writing, software
  - distributed under the License is distributed on an "AS IS" BASIS,
  - WITHOUT WARRANTIES OR CONDITIONS OF ANY KIND, either express or implied.
  - See the License for the specific language governing permissions and
  - limitations under the License.
  -->

<svg width="512" height="512" viewBox="0 0 512 512" fill="none" xmlns="http://www.w3.org/2000/svg">
    <path d="M492.346 0C512 0 512 0.000417982 512 18.2861V454.857C512 457.714 512 460.343 510.157 462.286L456.109 509.714C453.653 511.428 452.306 512 449.354 512H20.6543C1.00045 512 1 512 1 493.714V18.2861C1 0.000417982 1.00048 0 20.6543 0H492.346ZM49.2695 30C32.0003 30 32 30.0003 32 46.1074V464.893C32 481 32.0003 481 49.2695 481H425.954C428.548 481 429.732 480.496 431.891 478.986L479.381 437.209C481 435.498 481 433.182 481 430.665V46.1074C481 30.0003 481 30 463.73 30H49.2695Z" fill="#AFB1B3"/>
    <path d="M383.057 64H397.726C408.214 64 416.718 72.4976 416.726 82.9853L416.985 417.985C416.993 428.484 408.484 437 397.985 437H383.005C372.51 437 364.002 428.49 364.005 417.995L364.057 227.624V83C364.057 72.5066 372.563 64 383.057 64Z" fill="#AFB1B3" stroke="black"/>
    <path d="M88.9472 356.265C52.5702 380.558 76.2304 420.378 117.681 395.39L284.465 289.5C315.73 266.329 316.422 240.697 288.751 221.099L123.2 95.384C93.233 73.8738 63.443 112.133 88.9472 130.26L257.251 252.5L88.9472 356.265Z" fill="#AFB1B3"/>
</svg>
